<svg width="130" height="29" viewBox="0 0 130 29" fill="none" xmlns="http://www.w3.org/2000/svg">
<path d="M119.633 17.709V7.33606H122.74V21.7716H118.263L111.987 11.4193H111.64V21.7716H108.532V7.33606H112.723V7.35668H113.009L119.265 17.709H119.633Z" fill="#01101C"/>
<path d="M85.4479 7.33606V18.9464H94.095V21.7716H82.3407V7.33606H85.4479Z" fill="#01101C"/>
<path d="M75.1043 7.33606C76.8214 7.33606 81.2165 7.35668 81.2165 12.5535C81.2165 17.9359 76.4535 17.7503 75.1043 17.7503C74.5728 17.7503 72.4468 17.7503 71.8131 17.7503V21.7716H68.7058V7.33606H71.8131V7.35668C72.5694 7.35668 74.2661 7.33606 75.1043 7.33606ZM75.2065 15.0282C76.0446 15.0282 78.2933 15.1519 78.2933 12.5535C78.2933 10.0582 76.3104 10.0582 75.2678 10.0582C74.6954 10.0582 72.6512 10.0582 71.8131 10.0582V15.0282C72.5081 15.0282 74.9407 15.0282 75.2065 15.0282Z" fill="#01101C"/>
<path d="M63.1246 7.33606H67.581V21.7716H64.4738V11.0274H64.1672L61.4484 21.7716H56.9715L54.2527 11.0274H53.946V21.7716H50.8388V7.33606H55.4179V7.35668H56.1743L59.0157 18.9051H59.3019L62.1638 7.35668H63.1246V7.33606Z" fill="#01101C"/>
<path d="M45.1118 7.35667L50.2224 21.7716H46.9925L46.1544 19.4001H38.8565L37.9979 21.7716H34.7885L39.899 7.35667H45.1118ZM39.8581 16.5336H45.1322L42.904 10.2025H42.1068L39.8581 16.5336Z" fill="#01101C"/>
<path d="M34.6615 12.1617C34.6615 14.657 33.5576 15.5643 32.2698 16.2449L35.009 21.7716H31.6361L29.3056 16.9666C28.999 16.9666 28.7333 16.9666 28.5493 16.9666C28.0178 16.9666 25.8918 16.9666 25.2581 16.9666V21.7716H22.1508V7.33606H25.2581V7.35668C26.0144 7.35668 28.2835 7.33606 29.1217 7.33606C30.8388 7.33606 34.6615 7.33606 34.6615 12.1617ZM28.8764 14.162C29.7758 14.162 31.7792 14.1826 31.7792 12.1617C31.7792 10.1613 29.8985 10.1613 28.9377 10.1613C28.3653 10.1613 26.0758 10.1613 25.2581 10.1613V14.162C25.9327 14.162 28.6106 14.162 28.8764 14.162Z" fill="#01101C"/>
<path d="M7.25928 10.2026V7.33606H21.1805V10.2026H15.7633V21.7716H12.656V10.2026H7.25928Z" fill="#01101C"/>
<path d="M95.2172 21.8242L103.558 7.25H107.927L99.5863 21.8242H95.2172Z" fill="#FA6C1C"/>
</svg>
